# xmcd
#
# Track frame offsets:
#	150
#	15104
#	38214
#	52204
#	71278
#	90731
#	104860
#	123733
#	146929
#	158694
#	175165
#	193957
#	207827
#	218872
#	239441
#	253325
#	266650
#	281233
#	293421
#	311182
#	323716
#
# Disc length: 4546 seconds
#
# Revision: 0
# Processed by: cddbd v1.4PL0 Copyright (c) Steve Scherf et al.
# Submitted via: dBpowerAMP V4.0
#
DISCID=4f11c015
DTITLE=Jones Norah - Greatest Hits
DYEAR=2003
DGENRE=Undefined
TTITLE0=Come away with me
TTITLE1=New York City
TTITLE2=Don't know why
TTITLE3=I've got to see you again
TTITLE4=Deceptively yours
TTITLE5=Lonestar
TTITLE6=Nightinghale
TTITLE7=Heart of mine
TTITLE8=Turn me on
TTITLE9=Cold cold heart
TTITLE10=strange transmissions
TTITLE11=One flight down
TTITLE12=Seven years
TTITLE13=All your love
TTITLE14=The nearness of you
TTITLE15=Feelin' the same way
TTITLE16=Things you don't have to do
TTITLE17=Painter song
TTITLE18=Shoot the moon
TTITLE19=The long day is over
TTITLE20=New York city (Radio edit)
EXTD=
EXTT0=
EXTT1=
EXTT2=
EXTT3=
EXTT4=
EXTT5=
EXTT6=
EXTT7=
EXTT8=
EXTT9=
EXTT10=
EXTT11=
EXTT12=
EXTT13=
EXTT14=
EXTT15=
EXTT16=
EXTT17=
EXTT18=
EXTT19=
EXTT20=
PLAYORDER=
